PathFileType   4   (X/Y/Z)
DataRate	CameraRate	NumFrames	NumMarkers	Units	OrigDataRate	OrigDataStartFrame	OrigNumFrames
120.0	120.0	6	37	mm	120.0	1	118
Frame#	Time	midhip	hip_r	hip_l	knee_r	knee_l	ankle_r	ankle_l	midasis	asis_r	asis_l	psis_r	psis_l	epicondLat_r	epicondLat_l	epicondMed_r	epicondMed_l	malleolusLat_r	malleolusLat_l	malleolusMedv_r	malleolusMedv_l	neck	subclavicle_r	subclavicle_l	sternalnotch	xyphoidprocess	thighwand_r	thighwand_l	upperleg1_r	upperleg1_l	upperleg2_r	upperleg2_l	shankwand_r	shankwand_l	lowerleg1_r	lowerleg1_l	toe_r	toe_l
 	 	X1	Y1	Z1	X2	Y2	Z2	X3	Y3	Z3	X4	Y4	Z4	X5	Y5	Z5	X6	Y6	Z6	X7	Y7	Z7	X8	Y8	Z8	X9	Y9	Z9	X10	Y10	Z10	X11	Y11	Z11	X12	Y12	Z12	X13	Y13	Z13	X14	Y14	Z14	X15	Y15	Z15	X16	Y16	Z16	X17	Y17	Z17	X18	Y18	Z18	X19	Y19	Z19	X20	Y20	Z20	X21	Y21	Z21	X22	Y22	Z22	X23	Y23	Z23	X24	Y24	Z24	X25	Y25	Z25	X26	Y26	Z26	X27	Y27	Z27	X28	Y28	Z28	X29	Y29	Z29	X30	Y30	Z30	X31	Y31	Z31	X32	Y32	Z32	X33	Y33	Z33	X34	Y34	Z34	X35	Y35	Z35	X36	Y36	Z36	X37	Y37	Z37

	1	0.12500	1112.168	882.269	-207.845	1109.281	862.976	-136.355	1104.229	857.056	-286.583	1251.933	474.034	-136.689	1033.260	443.259	-290.033	1280.038	70.050	-153.182	752.327	162.272	-283.289	1193.156	946.683	-217.790	1197.130	951.340	-99.613	1189.182	942.026	-335.968	1006.715	987.680	-178.032	1010.154	984.182	-263.524	1261.366	477.444	-79.055	1031.228	444.091	-347.992	1224.463	469.279	-191.987	1053.082	441.627	-224.850	1273.407	67.980	-113.790	736.358	177.466	-315.463	1290.703	84.830	-181.157	763.502	169.707	-256.486	989.023	1407.162	-195.114	1115.340	1330.834	-144.548	1124.099	1342.354	-251.117	1102.217	1343.803	-195.810	1188.453	1183.598	-217.634	1274.223	581.421	-4.700	1211.459	513.958	-311.145	1263.107	650.444	-67.677	1146.098	581.072	-340.812	1283.581	568.211	-96.494	1114.713	498.925	-331.142	1295.961	199.519	-25.485	842.782	265.938	-403.555	1279.985	166.467	-98.949	809.123	245.156	-331.913	1406.271	41.898	-137.427	774.269	44.884	-271.411
	2	0.13333	1123.780	884.606	-207.123	1120.500	864.527	-135.096	1115.071	858.467	-285.306	1256.984	474.093	-135.834	1053.317	442.486	-290.827	1280.569	69.995	-153.250	767.779	166.655	-284.842	1204.207	948.120	-216.819	1208.472	952.882	-98.808	1199.942	943.359	-334.830	1017.796	989.360	-176.875	1020.801	985.593	-262.366	1267.337	477.603	-78.364	1050.452	443.680	-348.744	1227.974	469.787	-190.206	1074.121	439.638	-225.812	1273.893	67.908	-113.867	751.980	182.315	-316.875	1291.012	84.794	-181.248	779.718	172.954	-258.437	999.512	1408.352	-193.835	1126.624	1332.373	-143.727	1134.959	1343.961	-249.746	1113.037	1345.448	-194.527	1200.135	1185.491	-216.884	1282.917	581.951	-4.434	1230.016	516.120	-314.001	1272.403	651.004	-67.712	1162.406	581.697	-342.089	1290.681	567.902	-96.321	1132.782	499.168	-332.671	1297.876	198.776	-25.264	859.425	269.206	-404.832	1281.518	166.151	-98.824	826.425	247.497	-333.719	1406.401	41.669	-137.570	783.351	47.753	-273.181
	3	0.14167	1133.867	885.334	-206.332	1131.549	865.884	-134.094	1125.513	859.767	-284.278	1261.446	474.048	-134.828	1073.627	441.980	-291.594	1281.129	69.951	-153.178	783.793	171.171	-285.996	1214.958	949.413	-216.187	1219.697	954.215	-98.289	1210.219	944.611	-334.085	1028.694	990.839	-175.577	1031.206	986.877	-261.032	1272.706	477.674	-77.537	1070.032	443.440	-349.464	1232.955	470.737	-189.225	1095.479	437.108	-227.460	1274.240	67.828	-113.833	768.216	187.182	-317.965	1291.027	84.675	-181.165	796.115	176.983	-259.862	1009.570	1409.829	-192.496	1137.467	1334.079	-142.550	1145.687	1345.638	-248.616	1123.738	1347.034	-193.407	1211.436	1187.413	-215.693	1291.106	582.410	-4.106	1248.590	518.727	-316.539	1280.742	651.297	-67.076	1178.822	582.627	-343.243	1297.782	568.094	-95.955	1151.318	499.115	-334.348	1299.080	198.069	-24.796	876.765	272.318	-405.885	1281.877	166.000	-98.152	844.125	250.087	-335.261	1406.419	41.495	-137.654	794.782	51.155	-275.640
	4	0.15000	1143.203	885.304	-205.344	1142.432	867.104	-133.327	1135.613	860.961	-283.476	1265.418	473.923	-133.720	1094.112	441.827	-292.322	1281.653	69.909	-153.007	800.406	175.748	-286.726	1225.423	950.608	-215.867	1230.775	955.430	-98.019	1220.071	945.787	-333.716	1039.390	992.151	-174.196	1041.420	988.017	-259.601	1277.540	477.658	-76.611	1089.921	443.463	-350.147	1237.935	470.985	-187.166	1117.741	433.668	-230.383	1274.458	67.745	-113.719	785.054	192.022	-318.670	1290.924	84.582	-180.948	812.267	181.712	-260.475	1019.954	1411.339	-191.562	1147.548	1335.408	-140.932	1156.606	1347.416	-247.932	1134.358	1348.572	-192.451	1222.085	1189.032	-214.524	1298.785	582.785	-3.720	1267.147	521.824	-318.667	1288.481	651.709	-66.684	1195.446	583.811	-344.057	1304.437	568.516	-95.048	1170.965	499.387	-336.442	1299.803	197.450	-24.163	894.660	275.397	-406.675	1281.552	165.956	-97.189	862.248	253.672	-335.622	1406.368	41.361	-137.694	808.716	54.922	-278.747
	5	0.15833	1152.764	885.570	-204.140	1153.145	868.247	-132.761	1145.447	862.075	-282.866	1269.017	473.748	-132.572	1114.705	442.091	-292.990	1282.064	69.862	-152.792	817.691	180.232	-287.067	1235.629	951.759	-215.802	1241.673	956.605	-97.937	1229.584	946.913	-333.666	1049.865	993.354	-172.792	1051.457	989.019	-258.154	1281.918	477.565	-75.640	1110.054	443.824	-350.777	1241.113	471.349	-185.001	1139.780	431.935	-232.145	1274.559	67.656	-113.564	802.519	196.719	-318.989	1290.772	84.543	-180.747	829.561	186.584	-260.788	1030.888	1412.613	-190.668	1157.245	1336.822	-139.705	1167.293	1349.212	-247.052	1144.902	1350.087	-191.609	1232.263	1190.614	-213.344	1305.954	583.052	-3.294	1285.660	525.416	-320.361	1296.100	652.443	-66.482	1212.492	585.136	-344.740	1310.374	568.113	-94.517	1190.666	500.325	-337.818	1300.303	196.934	-23.464	913.011	278.528	-407.189	1281.168	166.073	-96.281	880.722	257.687	-335.585	1406.285	41.254	-137.706	825.125	58.860	-282.388
	6	0.16667	1162.339	885.986	-202.707	1163.682	869.369	-132.357	1155.093	863.153	-282.413	1272.375	473.561	-131.464	1135.344	442.807	-293.573	1282.316	69.803	-152.583	835.727	184.426	-287.097	1245.609	952.917	-215.910	1252.360	957.802	-97.970	1238.859	948.032	-333.849	1060.106	994.516	-171.429	1061.307	989.919	-256.766	1285.939	477.414	-74.689	1130.347	444.575	-351.331	1244.752	472.052	-184.090	1160.374	433.004	-231.731	1274.564	67.563	-113.405	820.656	201.103	-318.967	1290.661	84.674	-180.571	848.409	190.902	-261.018	1040.758	1414.092	-189.518	1167.287	1338.303	-139.104	1177.983	1350.843	-246.387	1155.372	1351.570	-190.857	1242.859	1192.247	-212.483	1312.632	583.183	-2.845	1304.095	529.480	-321.661	1303.223	652.665	-65.852	1229.464	587.083	-345.598	1316.163	567.410	-94.252	1209.208	501.675	-338.086	1300.813	196.504	-22.797	931.767	281.729	-407.440	1281.343	166.175	-95.622	899.547	261.628	-335.608	1406.201	41.163	-137.708	843.817	62.780	-286.406
